<?xml version="1.0" encoding="utf-8"?>
<!-- Generator: Adobe Illustrator 17.1.0, SVG Export Plug-In . SVG Version: 6.00 Build 0)  -->
<!DOCTYPE svg PUBLIC "-//W3C//DTD SVG 1.1//EN" "http://www.w3.org/Graphics/SVG/1.1/DTD/svg11.dtd">
<svg version="1.1" id="Layer_1" xmlns="http://www.w3.org/2000/svg" xmlns:xlink="http://www.w3.org/1999/xlink" x="0px" y="0px"
	 viewBox="-4 131 421 326" enable-background="new -4 131 421 326" xml:space="preserve">
<path id="Shape_1012_copy_4" fill="#D82533" d="M3.6,310.7c-6.3-6.2-6.3-16.4-0.1-22.6l0.1-0.1L26,265.6c5.9-6.2,15.8-6.4,21.9-0.5
	c0.2,0.1,0.3,0.3,0.5,0.5l1.6,1.6l88.1,94.7c2.9,3.1,7.8,3.2,10.9,0.3c0.1-0.1,0.2-0.2,0.3-0.3l214.4-222.7h1.6
	c5.9-6.2,15.8-6.4,21.9-0.5c0.2,0.1,0.3,0.3,0.5,0.5l22.4,22.4c6.2,5.9,6.4,15.7,0.5,21.9c-0.2,0.2-0.4,0.4-0.5,0.5L154,449.9
	c-5.9,6.2-15.7,6.4-21.9,0.5c-0.2-0.2-0.4-0.4-0.5-0.5L6.8,315.2L3.6,310.7z"/>
</svg>
