
<svg xmlns="http://www.w3.org/2000/svg" width="189" height="139" xmlns:xlink="http://www.w3.org/1999/xlink"><defs><rect id="a" width="63.6" height="28" rx="2.9"/><mask id="c" width="63.6" height="28" x="0" y="0" fill="#fff"><use xlink:href="#a"/></mask><rect id="b" width="62.6" height="28" rx="2.9"/><mask id="d" width="62.6" height="28" x="0" y="0" fill="#fff"><use xlink:href="#b"/></mask></defs><g fill="none" fill-rule="evenodd" transform="translate(-.875)"><circle cx="101.5" cy="69.5" r="69.5" fill="#D6E0EA"/><path fill="#EAF1F6" d="M35.5 42.3h109.3v66.4H35.5z"/><g transform="translate(31.3 21.458)"><path fill="#EFF4F7" d="M128 .3H8.5C4 .3.3 4 .3 8.5v83c0 4.5 3.7 8 8.2 8H128c4.4 0 8-3.5 8-8v-83c.2-4.6-3.6-8.2-8-8.2z"/><path fill="#FFF" d="M8.5 20.4H128V91H8.5z"/><path fill="#6FB9E7" d="M34.4 40.4h67.3v6.4H34.4z"/><path fill="#D6E0EA" d="M25.8 50.7h84.5v3H25.8zm0 6.8h84.5v3H25.8z"/><ellipse cx="125.4" cy="10.9" fill="#D6E0EB" rx="2.6" ry="2.6"/><ellipse cx="116.2" cy="10.9" fill="#D6E0EB" rx="2.6" ry="2.6"/><ellipse cx="107" cy="10.9" fill="#D6E0EB" rx="2.6" ry="2.6"/></g><g transform="translate(1.022 73.337)"><ellipse cx="29.5" cy="31.2" fill="#FFF" rx="12.1" ry="12.1"/><path fill="#6FB9E7" d="M59 26.2l-5.6-1.5c-.6-2.4-1.5-4.6-2.7-6.7l3-5c0-.5 0-1.2-.4-1.7l-4-4c-.5-.5-1.2-.6-1.8-.3l-5 3c-2-1.3-4.2-2.3-6.6-2.8l-1.6-5.6c0-.6-.7-1-1.4-1h-5.8c-.7 0-1.2.4-1.4 1l-1.5 5.6c-2.4.5-4.6 1.5-6.6 2.7l-5-3c-.6-.3-1.3-.2-1.7.2l-4 4c-.5.6-.7 1.3-.3 2l3 4.8c-1.4 2-2.3 4.3-3 6.7l-5.4 1.5c-.7 0-1 .7-1 1.3v6c0 .5.3 1 1 1.3l5.5 1.5c.6 2.3 1.5 4.6 2.8 6.6l-3 5c-.2.4 0 1.2.3 1.6l4 4c.4.5 1 .7 1.7.3l5-3c2 1.3 4.2 2.2 6.6 2.8l1.5 5.5c.2.7.7 1 1.4 1h6c.7 0 1.3-.3 1.4-1l1.5-5.5c2.3-.6 4.5-1.5 6.5-2.8l5 3c.6.2 1.3 0 1.7-.3l4-4c.6-.5.7-1.3.4-1.8l-3-5c1.3-2 2.2-4.4 2.8-6.7l5.6-1.5c.6-.2 1-.8 1-1.4v-6c0-.4-.4-1-1-1.2zm-29 15c-5.8 0-10.5-4.8-10.5-10.7 0-6 4.7-10.7 10.6-10.7 6 0 10.8 4.8 10.8 10.7 0 6-4.7 10.7-10.7 10.7z"/></g><g transform="translate(124.628 94.3)"><path fill="#6FB9E7" d="M8.4 33.6h9.2l-9.4 6.2"/><rect width="44.6" height="32.2" x="1" y="2.7" fill="#6FB9E7" rx="3"/><path fill="#6FB9E7" stroke="#6FB9E7" d="M41.3.6H5c-2.7 0-5 2.7-5 6v24c0 3.2 2.3 6 5 6h2.2L6.5 40c0 .6 0 1 .3 1.3l.6.3h.4l9-5h24.5c2.7 0 5-2.8 5-6v-24c0-3.3-2.3-6-5-6zm3 30c0 2-1.4 3.5-3 3.5H16.6l-.4.2-7.3 4 .4-2.6v-1c-.3-.3-.6-.5-1-.5H5c-1.7 0-3-1.5-3-3.5v-24C2 4.6 3.3 3 5 3h36.3c1.6 0 3 1.6 3 3.6v24z"/><path fill="#FFF" stroke="#FFF" d="M38.8 9.2H7.4c-.5 0-1 .6-1 1.2 0 .7.5 1.3 1 1.3h31.4c.6 0 1-.6 1-1.3 0-.6-.4-1.2-1-1.2zm0 8.6H7.4c-.5 0-1 .5-1 1.2s.5 1.2 1 1.2h31.4c.6 0 1-.5 1-1.2s-.4-1.2-1-1.2zm0 8.6H7.4c-.5 0-1 .5-1 1.2 0 .6.5 1.2 1 1.2h31.4c.6 0 1-.6 1-1.2 0-.7-.4-1.2-1-1.2z"/></g><path fill="#2E3852" d="M161.7 64.5H184l4.3 3.4-.2 18.3-2.6 2-6.6.6-.6 3.5V94l-9.4-4.6-7.5-1L158 86V69.6l1-4"/><path fill="#2E3852" d="M183 63.4h-20.4c-3.4 0-6.2 2.8-6.2 6.2v14.6c0 3.4 2.8 6 6.2 6h5.2l9.8 4.7h.5c.3 0 .6 0 .8-.2.3-.2.5-.6.5-1v-3.5h3.8c3.4 0 6.2-2.7 6.2-6V69.5c0-3.4-2.7-6.2-6-6.2zm3.8 20.8c0 2-1.7 3.7-3.7 3.7h-4.8c-.7 0-1.2.4-1.2 1v3l-8.4-4h-5.9c-2 0-3.7-1.8-3.7-3.8V69.6c0-2 1.5-3.7 3.6-3.7H183c2 0 3.8 1.5 3.8 3.6v14.6z"/><path fill="#FFF" d="M172.8 68.7c-3 0-5.3 2.4-5.3 5.3 0 .7.6 1.2 1.3 1.2.6 0 1.2-.5 1.2-1.2 0-1.6 1.3-3 2.8-3 1.6 0 3 1.4 3 3 0 1-.6 2-1.5 2.4-1.8 1-3 3-3 5.2.2.6.7 1.2 1.3 1.2.8 0 1.3-.6 1.3-1.3-.2-1.2.5-2.4 1.6-3 1.6-1 2.5-2.7 2.5-4.5 0-3-2.3-5.3-5.2-5.3zm-.1 15.3c-.4 0-.7 0-1 .3 0 .3-.3.6-.3 1l.4.7c.2.3.5.4 1 .4.2 0 .5 0 .7-.4.2-.2.4-.5.4-.8 0-.3-.3-.6-.5-1l-.8-.2z"/><g transform="translate(28.376 29.808)"><use fill="#F4F8FA" stroke="#D6E0EA" stroke-width="3.5" mask="url(#c)" xlink:href="#a"/><path d="M26 7.4h29.6V10H26zm0 5.4h29.6v2.7H26zm0 5.4h19V21H26z" fill="#D6E0EA"/><ellipse cx="14.2" cy="14" fill="#F4F8FA" stroke="#D6E0EA" stroke-width="1.7" rx="6.6" ry="6.5"/></g><g transform="translate(8.765 8.235)"><use fill="#F4F8FA" stroke="#D6E0EA" stroke-width="3.5" mask="url(#d)" xlink:href="#b"/><path d="M25.5 7.4h29.2V10H25.5zm0 5.4h29.2v2.7H25.5zm0 5.4h19V21h-19z" fill="#D6E0EA"/><ellipse cx="14" cy="14" fill="#F4F8FA" stroke="#D6E0EA" stroke-width="1.7" rx="6.5" ry="6.5"/></g></g></svg>