<svg xmlns="http://www.w3.org/2000/svg" width="180" height="140" xmlns:xlink="http://www.w3.org/1999/xlink"><defs><path id="a" d="M52 .5H0v48h52V.6z"/></defs><g fill="none" fill-rule="evenodd"><circle cx="69.5" cy="69.5" r="69.5" fill="#D6E0EA" transform="translate(19 .23)"/><path fill="#EFF4F7" d="M65.5 115.7v5.8h46.8v-5.8H162V22.2c0-3.3-2.6-6-6-6H21.8c-3.2 0-5.8 2.7-5.8 6v93.5h49.5z"/><path fill="#FFF" d="M22.8 109.2H155V23H23"/><path d="M41.6 87.5c-.7 0-1.5-.3-2-1-1-1-1-2.8 0-4l8.3-8.3c1-1 2.8-1 4 0 1 1.2 1 3 0 4l-8.4 8.4c-.5.6-1.3 1-2 1m31.5-.1c-.8 0-1.5-.3-2-1l-8.4-8.2c-1-1-1-3 0-4 1-1.2 3-1.2 4 0l8.4 8.2c1 1.2 1 3 0 4-.6.7-1.3 1-2 1m10.5 1.2c-.7 0-1.5-.3-2-.8-1-1.3-1-3 0-4.2l24-24c1-1 3-1 4 0 1 1.2 1 3 0 4l-24 24c-.5.6-1.2 1-2 1" fill="#D6E0EA"/><path fill="#EFF4F7" d="M112 109.3v5.7H66v-5.7H5.4v8.6c0 3 2.6 5.6 5.8 5.6h155.3c3.2 0 5.7-2.5 5.7-5.7v-8.7H112z"/><path d="M66 71.8c0 4.8-4 8.6-8.7 8.6-4.8 0-8.7-3.8-8.7-8.6s4-8.6 8.7-8.6c4.7 0 8.6 3.8 8.6 8.6m57.5-14.4c0 4.8-3.8 8.6-8.6 8.6s-8.6-3.8-8.6-8.6 3.8-8.6 8.6-8.6 8.6 3.8 8.6 8.6M86 92c0 4.7-3.8 8.6-8.6 8.6s-8.6-4-8.6-8.7c0-4.8 3.8-8.7 8.6-8.7s8.6 4 8.6 8.6m-40.2.2c0 4.7-4 8.6-8.7 8.6-4.6 0-8.5-4-8.5-8.7 0-4.8 4-8.7 8.6-8.7 5 0 8.8 4 8.8 8.6" fill="#6FB9E7"/><path d="M60.2 34.4H28.5c-1.6 0-3-1.3-3-3 0-1.5 1.4-2.8 3-2.8h31.7c1.5 0 2.8 1.3 2.8 3 0 1.5-1.3 2.8-2.8 2.8m37.4 0h-26c-1.5 0-2.8-1.3-2.8-3 0-1.5 1.3-2.8 3-2.8h25.8c1.5 0 2.8 1.3 2.8 3 0 1.5-1.3 2.8-2.8 2.8M45.8 46H28.5c-1.6 0-3-1.4-3-3s1.4-3 3-3h17.3c1.6 0 2.8 1.4 2.8 3s-1.2 3-2.8 3m37.4 0h-26c-1.5 0-2.8-1.4-2.8-3s1.3-3 3-3H83c1.6 0 2.8 1.4 2.8 3s-1.2 3-2.8 3m14.6 0h-3c-1.5 0-2.8-1.4-2.8-3s1.3-3 3-3h2.8c1.5 0 2.8 1.4 2.8 3s-1.3 3-2.8 3" fill="#D6E0EA"/><path fill="#FFF" d="M137.8 80.3H178v54.3h-40z"/><path fill="#EBF1F8" d="M177.5 79.3v-4.7c0-2-1.6-3.4-3.5-3.4h-32.2c-2 0-3.4 1.5-3.4 3.4v4.7h39zm-39 44.7h39V81.6h-39V124zm39 7v-4.7h-39v4.7c0 2 1.4 3.4 3.3 3.4H174c2 0 3.5-1.5 3.5-3.4zm2.3-56.4V131c0 3.2-2.6 5.7-5.8 5.7h-32.2c-3 0-5.7-2.5-5.7-5.7V74.6c0-3 2.7-5.7 5.8-5.7H174c3.2 0 5.8 2.5 5.8 5.6z"/><path fill="#EAF1F7" d="M161.4 130.3c0-2-1.6-3.4-3.5-3.4-2 0-3.5 1.4-3.5 3.3 0 2 1.5 3.5 3.4 3.5 1.8 0 3.4-1.6 3.4-3.5zm16-4v4.7c0 2-1.5 3.4-3.4 3.4h-32.2c-2 0-3.4-1.5-3.4-3.4v-4.7h39zM164 75.2c0-.6-.5-1-1.2-1H153c-.6 0-1 .4-1 1 0 .7.4 1.2 1 1.2h9.8c.7 0 1.2-.5 1.2-1.2m13.5-.6v4.7h-39v-4.7c0-2 1.4-3.4 3.3-3.4H174c2 0 3.5 1.5 3.5 3.4"/><path fill="#FFF" d="M162.8 74c.7 0 1.2.6 1.2 1.2 0 .7-.5 1.2-1.2 1.2H153c-.6 0-1-.5-1-1.2 0-.6.4-1 1-1h9.8zm-3.8 56.3c0-.6-.4-1-1-1-.7 0-1.2.4-1.2 1 0 .7.5 1.2 1 1.2.8 0 1.3-.5 1.3-1.2m-1-3.4c1.8 0 3.4 1.4 3.4 3.3 0 2-1.6 3.5-3.5 3.5-2 0-3.5-1.6-3.5-3.5 0-2 1.5-3.4 3.4-3.4"/><path fill="#6FB9E7" stroke="#6FB9E7" stroke-width="2" d="M168.6 119.4h4.8V87.7h-4.8zm-8.9 0h4.8V95.6h-4.8zm-8.7 0h4.7v-16H151zm-9 0h4.8v-8H142z"/><g><g transform="translate(.857 89.517)"><mask id="b" fill="#fff"><use xlink:href="#a"/></mask><path fill="#499BCE" d="M7 20.3V18l-3.3 2.3H7zm0 3V22H4.3L7 23.4zM1.7 46.2l19.8-13L1.7 22.5V46zm41.5-21.7v-22H8.7v22L23 32l2.5-1.6c.3-.2.6-.2 1 0l2.3 1.6 14.4-7.7zm1.7-1l2.6-1.3H45v1.4zM3.6 47h44.5L26 32 3.7 47zM45 20.2h3L45 18v2.3zM50 46V22.6L30.4 33l19.8 13zm2-25v26.7c0 .5-.5 1-1 1H1c-.6 0-1-.5-1-1V21c0-.2.2-.4.4-.6L7 16V1.3c0-.5.4-.8 1-.8h36c.5 0 1 .3 1 .8V16l6.5 4.4c.3.2.4.4.4.7z" mask="url(#b)" transform="matrix(-1 0 0 1 51.907 0)"/><path fill="#499BCD" d="M1.4 17l6 4.4-6 3.5" mask="url(#b)" transform="matrix(-1 0 0 1 8.773 0)"/><path fill="#499BCD" d="M44.5 17l6 4.4-6 3.5" mask="url(#b)"/></g><path fill="#6FB9E7" d="M51 112v23.7l-19.7-13M49 136.4H4.7l22.2-14.7"/><path fill="#FFF" d="M34.5 105.3v-.7c0-4.2-3.4-7.7-7.7-7.7-4.2 0-7.7 3.4-7.7 7.6v.3c0 4 3.6 7.6 7.8 7.6h7c.3 0 .7-.4.7-1 0-.3-.4-.7-.8-.7h-7c-3.2 0-6-2.8-6-6v-.4c0-3.3 2.8-6 6-6 3.4 0 6 2.7 6 6v.7c0 .7-.5 1.3-1.2 1.3s-1.3-.6-1.3-1.3v-1c0-2-1.7-3.7-3.7-3.7s-3.7 1.7-3.7 3.8c0 2 1.6 3.8 3.7 3.8 1 0 1.8-.4 2.4-1 .5 1 1.4 1.5 2.5 1.5 1.7 0 3-1.4 3-3zM44 91.7v22l-14.4 7.8-2.3-1.6c-.3-.3-.7-.3-1 0l-2.3 1.5-14.4-7.7v-22H44z"/><path fill="#499BCD" d="M28.5 104c0-1-1-2-2-2s-2 1-2 2c0 1.2 1 2 2 2s2-.8 2-2m6 .6v.7c0 1.6-1.3 3-3 3-1 0-2-.6-2.6-1.5-.7.6-1.6 1-2.5 1-2 0-3.7-1.7-3.7-3.7s1.6-3.7 3.7-3.7c2 0 3.7 1.7 3.7 3.8v1.3c0 .7.6 1.3 1.3 1.3.7 0 1.3-.6 1.3-1.3v-.7c0-3.3-2.7-6-6-6s-6 2.7-6 6v.3c0 3.2 2.7 6 6 6h7c.3 0 .7.3.7.7 0 .5-.4 1-.8 1h-7c-4 0-7.6-3.6-7.6-7.8v-.4c0-4.2 3.6-7.7 7.8-7.7 4.3 0 7.7 3.4 7.7 7.6"/><path fill="#FFF" d="M26.5 102c1 0 2 1 2 2 0 1.2-1 2-2 2s-2-.8-2-2c0-1 1-2 2-2"/><path fill="#6FB9E7" d="M22.3 122.6l-19.7 13v-23.5"/></g></g></svg>