
<svg viewBox="0 0 157 68" xmlns="http://www.w3.org/2000/svg"><g fill="none" fill-rule="evenodd"><g transform="translate(.703 24.893)"><circle fill="#E1EAF4" cx="20.76" cy="21.37" r="20.76"/><path d="M15.57 11c11.47 0 20.76 9.28 20.76 20.75 0 1.26-.15 2.48-.37 3.67 3.42-3.7 5.56-8.6 5.56-14.05C41.52 9.9 32.22.6 20.76.6 10.56.6 2.1 8 .36 17.7c3.8-4.1 9.2-6.7 15.2-6.7z" fill="#D6E0EB"/></g><g transform="translate(36.58 .406)"><circle fill="#E0E9F4" cx="11.88" cy="12.23" r="11.88"/><path d="M8.9 6.3c6.57 0 11.9 5.3 11.9 11.87 0 .72-.1 1.42-.22 2.1 1.96-2.12 3.18-4.93 3.18-8.04C23.76 5.67 18.44.35 11.88.35 6.04.35 1.2 4.57.2 10.13 2.4 7.78 5.47 6.3 8.9 6.3z" fill="#D6E0EB"/></g><g transform="translate(119.185 16.067)"><ellipse fill="#E0E9F4" cx="18.76" cy="19.31" rx="18.76" ry="18.76"/><path d="M14.07 9.93c10.36 0 18.76 8.4 18.76 18.76 0 1.12-.15 2.22-.34 3.3 3.08-3.35 5-7.78 5-12.7C37.5 8.96 29.13.56 18.77.56 9.53.55 1.9 7.22.33 16c3.43-3.7 8.3-6.07 13.74-6.07z" fill="#D6E0EB"/></g></g></svg>