<svg viewBox="0 0 249 133" xmlns="http://www.w3.org/2000/svg"><g fill="none" fill-rule="evenodd" transform="translate(1.685 1.765)"><g fill="#e7f0f6" stroke="#eff4f7" stroke-width="1.9"><ellipse cx="34.23" cy="56.14" rx="34.23" ry="22.87"/><ellipse cx="121.14" cy="106.97" rx="34.23" ry="22.87"/><ellipse cx="78.62" cy="53.03" rx="21.57" ry="22.87"/><ellipse cx="35.49" cy="86.18" rx="21.57" ry="22.87"/><ellipse cx="103.95" cy="30.59" rx="21.57" ry="30.49"/><ellipse cx="143.78" cy="46.01" rx="28.38" ry="30.49"/><ellipse cx="71.81" cy="89.37" rx="28.38" ry="30.49"/><ellipse cx="179.3" cy="55.5" rx="28.38" ry="30.49"/><ellipse cx="166.96" cy="90.39" rx="34.23" ry="30.49"/><ellipse cx="217.85" cy="67.34" rx="28.38" ry="30.49"/></g><path d="m33.86 52.48v18.32l19.22 25.18 37.4 4.8 57.65 2.7 47.6-14.38-3.8-36.62-31.18-14.18h-37.18l-37.87-4.3-21.9 22.84" fill="#e7eff6"/></g></svg>