
<svg viewBox="0 0 43 52" xmlns="http://www.w3.org/2000/svg" xmlns:xlink="http://www.w3.org/1999/xlink"><defs><path d="M4.1 24.64c1.06 0 2.1-.4 2.9-1.2L23.44 7c1.6-1.6 1.6-4.2 0-5.8-1.6-1.6-4.2-1.6-5.8 0L1.2 17.63c-1.6 1.6-1.6 4.2 0 5.8.8.8 1.86 1.2 2.9 1.2z" id="a"/><path d="M4.1 16.5c1.06 0 2.1-.4 2.9-1.2l8.22-8.2c1.6-1.6 1.6-4.2 0-5.8-1.6-1.62-4.2-1.62-5.8 0L1.2 9.5c-1.6 1.6-1.6 4.2 0 5.8.8.8 1.86 1.2 2.9 1.2z" id="c"/><path d="M1.6 1.7C.86 2.48.4 3.55.4 4.62c0 1.07.46 2.13 1.2 2.92.78.73 1.85 1.2 2.92 1.2 1.06 0 2.13-.47 2.9-1.2.75-.8 1.2-1.85 1.2-2.92 0-1.07-.45-2.14-1.2-2.92C5.93.2 3.13.2 1.6 1.7z" id="e"/><path d="M1.82 19.33c.8.8 1.85 1.2 2.9 1.2 1.05 0 2.1-.4 2.9-1.2L19.95 7c1.6-1.6 1.6-4.2 0-5.8-1.6-1.6-4.2-1.6-5.8 0L1.82 13.52c-1.6 1.6-1.6 4.2 0 5.8z" id="g"/></defs><g fill="none" fill-rule="evenodd"><g transform="rotate(-81 24.942 23.873)"><mask id="b" fill="#fff"><use xlink:href="#a"/></mask><path fill="#6FB9E7" mask="url(#b)" d="M-5-5h34.64v34.64H-5"/></g><g transform="rotate(-81 41.72 9.545)"><mask id="d" fill="#fff"><use xlink:href="#c"/></mask><path fill="#D6E0EA" mask="url(#d)" d="M-5-4.92h26.43v26.44H-5"/></g><g transform="rotate(-81 28.654 4.49)"><mask id="f" fill="#fff"><use xlink:href="#e"/></mask><path fill="#6FB9E7" mask="url(#f)" d="M-4.6-4.44h18.23v18.17H-4.6"/></g><g transform="rotate(-81 12.93 9.81)"><mask id="h" fill="#fff"><use xlink:href="#g"/></mask><path fill="#6FB9E7" mask="url(#h)" d="M-4.4-5h30.55v30.54H-4.4"/></g></g></svg>