
<svg viewBox="0 0 63 63" xmlns="http://www.w3.org/2000/svg" xmlns:xlink="http://www.w3.org/1999/xlink"><mask id="a" fill="#fff"><path d="m3.9 23.34c1 0 1.98-.38 2.74-1.14l15.56-15.56c1.52-1.52 1.52-3.98 0-5.5s-3.98-1.52-5.5 0l-15.56 15.56c-1.52 1.52-1.52 3.98 0 5.5.76.76 1.75 1.14 2.75 1.14z" fill="none"/></mask><mask id="b" fill="#fff"><path d="m3.9 15.6c1 0 1.98-.37 2.74-1.13l7.78-7.78c1.52-1.53 1.52-4 0-5.5-1.52-1.53-3.98-1.53-5.5 0l-7.78 7.77c-1.52 1.52-1.52 3.98 0 5.5.76.76 1.75 1.14 2.75 1.14z" fill="none"/></mask><mask id="c" fill="#fff"><path d="m1.52 1.6c-.7.76-1.12 1.78-1.12 2.8 0 1 .42 2.02 1.12 2.76.74.7 1.75 1.13 2.76 1.13 1 0 2.02-.43 2.76-1.13.7-.74 1.13-1.75 1.13-2.76 0-1-.43-2.03-1.13-2.77-1.44-1.43-4.08-1.43-5.52-.03z" fill="none"/></mask><mask id="d" fill="#fff"><path d="m1.72 18.3c.76.77 1.76 1.15 2.75 1.15 1 0 2-.38 2.75-1.14l11.68-11.66c1.5-1.52 1.5-3.98 0-5.5-1.53-1.52-4-1.52-5.5 0l-11.7 11.65c-1.52 1.53-1.52 4 0 5.5z" fill="none"/></mask><mask id="e" fill="#fff"><path d="m36.15 1.63-35 35c-1.53 1.52-1.53 3.98 0 5.5.75.76 1.74 1.14 2.74 1.14s1.98-.38 2.74-1.14l35-35c1.53-1.52 1.53-3.98 0-5.5-1.5-1.52-3.97-1.52-5.5 0z" fill="none"/></mask><mask id="f" fill="#fff"><path d="m1.25 1.42c-.7.74-1.13 1.7-1.13 2.76 0 1.05.43 2.02 1.13 2.76.75.7 1.75 1.13 2.75 1.13 1.02 0 2.03-.43 2.77-1.13.7-.74 1.13-1.75 1.13-2.76 0-1-.43-2.02-1.13-2.76-1.44-1.44-4.08-1.4-5.52 0z" fill="none"/></mask><mask id="g" fill="#fff"><path d="m10.84 1.14c-1.52-1.52-3.97-1.52-5.5 0l-3.88 3.9c-1.53 1.5-1.53 3.97 0 5.5.75.75 1.75 1.13 2.75 1.13s2-.38 2.76-1.14l3.88-3.9c1.53-1.5 1.53-3.97 0-5.5z" fill="none"/></mask><g fill="none" fill-rule="evenodd"><g fill="#6fb9e7"><path d="m-4.74-4.74h32.82v32.82h-32.82" mask="url(#a)" transform="translate(-.013 -.023)"/><path d="m-4.74-4.7h25.04v25.05h-25.04" mask="url(#b)" transform="translate(-.013 27.158)"/><path d="m-4.35-4.2h17.25v17.2h-17.24" mask="url(#c)" transform="translate(15.157 18.94)"/></g><path d="m-4.16-4.74h28.93v28.94h-28.93" fill="#d6e0ea" mask="url(#d)" transform="translate(22.742 -.023)"/><path d="m-4.74-4.26h52.27v52.26h-52.27" fill="#6fb9e7" mask="url(#e)" transform="translate(-.013 18.94)"/><path d="m-4.62-4.4h17.26v17.2h-17.26" fill="#6fb9e7" mask="url(#f)" transform="translate(42.653 11.355)"/><path d="m-4.43-4.74h21.16v21.14h-21.16" fill="#d6e0ea" mask="url(#g)" transform="translate(50.24 -.023)"/></g></svg>