<svg viewBox="0 0 192 77" xmlns="http://www.w3.org/2000/svg"><g fill="#FFF" fill-rule="evenodd"><path d="M67.04 1.37c-1.7-.82-5.14-.07-5.67 1.57-.85.45-19.8.8-26.24.72C28.7 3.6 9.9 2.13 5.6 3.56 1.32 5.02 0 8.73.32 12.32.66 15.9 3 16.64 4.12 16c1.14-.64 2.02-1.74 2.38-2.65.36-.9-.12-.72.64-1.22.75-.5 4.6-2.1 9.68-2.3 1.9-.1 7.33-.1 13.7-.1-4.6 8.56-8.4 19.74-9.8 26.95-.4 2.1-.52 4.36-.14 6.54.38 2.18.82 3.18 4.03 4.74 3.23 1.56 5 .98 5.44.1.45-.86-.05-1.7-.98-4.63-.94-2.92-1.68-5.66.2-13.8 1.68-7.36 5.68-15.64 8.1-19.88 8.78.02 17.65.04 20.93-.05 6.66-.18 9.12-1.63 9.9-3.16.77-1.52.55-4.34-1.16-5.17"/><path d="M44.53 25c-.05.58-2.12 1.5-3.7 3.86-2.03 2.97-1.93 6.64-.2 6.66 2.1.04 4.2-2 5.8-4.92 2-3.7 1.8-6.48 1.4-7.75-.5-1.5-1.82-2.14-2.72-1.84.26.2.1.63-.38.72-.42.08-1.05.02-1.2-.76-.17-.8.72-1.87 1.76-2.53 1.05-.67 2.65-.83 3.7-.4 1.2.47 3.36 2.32 3.57 5.63.23 3.5-1.24 7.82-2.4 9.68-1.16 1.85-5.1 7.88-10.12 8.02-4.85.13-6.42-2.75-6.5-6.2-.1-3.2 1.3-7.06 3.54-9.87 1.64-2.05 4.7-3.6 5.43-3.3.74.27 2.1 2.05 2.03 3m25.41 22.05c2.57-8.5 2.86-15.26 2.67-19.1-.05-1.24-3.72-1-4.92-.26-.04 0-.07.03-.1.05l-.05.05c-.1.07-.16.15-.2.23-.05.14-.1.34-.16.62l-.2.78c-.33 1.34-.97 2.34-1.58 3.17-1.4 1.9-3.66 3.26-5 3.3-.7 0-1.5-.88-1.2-2.6 1.03-6.6 6.1-9.9 8.25-9.86 1.08.02 1.82.36 2.07 1.26.2.77-.4 2.23.4 2.2 1.1-.02 2.35-2.47 2.3-4.3-.04-1.4-1.27-4.46-4.4-4.5-5.55-.1-14.72 7.53-14.47 16.6.14 4.88 2.4 6.96 3.83 6.92 2.05.03 7.03-3.1 9.5-7.77-.3 3.44-.94 7.12-1.97 10.96.14.03.96.17 1.98.53 1.14.38 1.94.9 2.33 1.2.03.02.14.1.12.13L69 46.6c-1.32-.57-2.8-1.02-4.42-1.28-1.2-.2-2.48-.3-3.85-.25-11.85.33-20.74 13-20.53 20.46.2 7.47 5.1 10.76 6.95 10.7 2.17-.05 5.88-.7 11.1-6.32 2.9-3.1 6.23-8.1 9.3-15.98-.28-.45-.88-1.05-1.98-1.8-.7-.48-1.28-.8-1.6-.96h-.02l-.14-.08v-.02l.25.07c.5.15.95.32 1.37.5l.5.24.35.2.22.1.13.1.33.2.1.07c.3.18.56.37.82.57 2.4 1.87 3.52 4.2 3.55 5.1.03 1.18-.8 1.78 0 2.54s5.73-1.42 5.63-4.97c-.06-2.32-2.46-6.32-7.1-8.72M62.5 51.7c-2.54 6.65-10.4 20.47-15.14 20.6-.9.03-3.27-1.36-3.36-4.66-.22-8.04 7.45-16.87 15.62-17.1 1.16-.03 2.23.07 3.2.27-.1.3-.2.6-.32.9m73.92-27.11c-.04-1.13-1.3-4.25-2.95-4.2-.43 0-1.07.47-1.83 1.24-.22-.08-.47-.1-.7-.1-3.36.04-10.05 9.6-11.64 13.72.83-3.3 3.05-11.62 5.56-16.8l.72-1.43c3.86-.44 6.4-1.7 8.76-4.6 2.6-3.2 3.5-7.07 3.52-9.13.03-1.8-.7-2.88-1.9-2.84-4.2.1-10.18 6.7-15.04 14.83-2.26-.05-4.78-.4-7.5-.88.97-1.07 2-2.1 3.18-3.14 1.26-1.13 3.5-1.5 3.47-2.64-.05-1.7-7.6-4.38-11.47-.28-.92.97-2.03 2.53-3.16 4.46-6.46-1.33-13.58-2.66-20.8-2.46-6.13.23-9.7 2.93-9.7 3.95-.02 1.52 1.2 3.88 3.1 3.83 1.9-.06 4.86-.83 4.82-2.48.9-.94 6.02-1.26 8.36-1.33 4.1-.1 8.58.28 12.95.8-2.1 4.08-4.03 9.2-4.7 14-2.56 4.74-8.37 8.86-14.08 8.92-2.4.03-3.77-1.88-3.82-3.62 0-.42.04-.82.1-1.2 7.6-.34 11.96-3.74 11.8-9.62-.03-1.3-2.52-2.2-2.9-1.76-.27-1.34-1.45-3.46-2.98-3.42-3.08.1-11.54 7.87-11.37 14.1.17 6.22 4.83 9.4 9.45 9.48 4.82.07 10.37-4.1 13.53-9.15v.27c.34 12.14 5.94 14.95 8.2 14.9 1.72-.06 2.6-1.08 2.58-1.87-.02-.78-.3-1.08-.7-1.47-.42-.4-1.77.04-1.75.66-1.14.03-2.18-.5-2.8-1.73-1.66-3.27-.25-11.87 1.9-17.4 1.67-4.3 3.33-7.4 5.34-10.02 2.92.4 5.62.76 7.9.93-4.3 7.63-7.45 16.26-7.3 22.16.08 2.62 1.47 2.84 3.2 3.16 1.93.36 4.3-.62 4-1.98-.53-2.3 1.96-7.86 5.2-12.15 2.54-3.36 4.2-4.7 4.93-4.6-2.85 3.8-6.1 10.03-6 13.92.12 4.64 3.42 5.26 5.27 5.2 1.52-.03 3.65-2.16 3.6-3.64-.02-1.07-.8-1.6-1.5-1.57-.8.03-1.3.7-1.26 1.02-1.3-.74-1.44-2.92-.42-5.24 1.54-3.5 6.87-7.5 6.84-8.8m-45.87-2c-.02 2.93-.8 8.83-8.56 9.1 1.63-5.6 7.68-7.93 8.55-9.1m45.23-18.4c.95-.04-.64 6.24-4.2 9.1-1.5 1.2-3.28 1.68-5 1.87 3.16-5.58 7.24-10.93 9.2-10.98m50.79 25.24c-8.1-.13-14.95 12.48-19.68 12.6-.65.03-1.6-.72-1.6-1.7.05-2.94 4.13-6.28 4.16-8.73.04-2.35-3.62-4.34-5.98-6.3.73-2.23 1.18-4.48 1.3-6.6.2 0 .32.18.32.37 0 .2.04.4.2.4.8-.03 1.3-1.36 1.3-2.13.02-1.2-2.15-3.58-4.28-3.62-1.43-.02-5.4 3.64-5.46 7.3-.03 2.1 2.3 3.82 4.36 5.3-3.12 6.55-9.3 12.9-16.75 12.77-2.47.1-3.44-2.16-3.5-3.85 0-.27 0-.54.02-.8 7.35-.3 12.24-4.1 12.06-10.55-.04-1.5-2.2-1.85-2.97-1.6-.4-1.4-1.17-2.93-2.3-2.9-4.56.13-12.4 7.92-12.22 14.58.17 6.07 4.1 8.84 8.6 8.9 8.2.13 15.17-7.28 18.5-15.46.98.76 1.67 1.45 1.66 2.12-.06 3.95-3.62 6.17-3.67 9.24-.04 2.85 3.73 4.54 5.7 4.56 6.6.1 11.85-10.85 20.84-10.7 1.38 0 2.17.6 2.07.8-.22.42.2.83.76.84 1.03.02 1.83-.76 1.84-1.85.03-1.9-1.46-2.95-5.3-3m-36.44-5c0 3.28-2.46 7.8-8.98 8.87h-.05c.98-6.24 7.6-7.8 9.03-8.86m11.38-1.97c.03-1.3.93-2.4 1.8-3.1-.14 1.47-.53 3.05-1.12 4.67-.42-.52-.68-1.04-.67-1.57M95.23 57.07c1.98 0 3.56.66 4.74 2 .52.58.9 1.24 1.16 1.98.26.74.4 1.5.4 2.23 0 .75-.14 1.5-.4 2.24-.25.74-.64 1.4-1.16 2-1.18 1.32-2.76 1.98-4.74 1.98h-3.58c-.23 0-.42-.08-.57-.23a.793.793 0 0 1-.23-.57V57.9c0-.24.08-.43.23-.6.15-.15.34-.23.57-.23h3.58zM95.03 68c1.48 0 2.66-.45 3.57-1.3.87-.88 1.3-2 1.3-3.42 0-1.4-.43-2.53-1.3-3.4-.9-.86-2.1-1.3-3.57-1.3h-2.56v9.4h2.56zm13.9-11.02c.22 0 .42.08.58.24.17.16.25.35.25.58v11c0 .2-.08.4-.24.56-.15.15-.35.23-.57.23-.23 0-.42-.1-.57-.24a.779.779 0 0 1-.24-.57v-11c0-.23.08-.42.24-.58.15-.16.34-.24.57-.24m13.89 11.19c1.1 0 2.15-.26 3.1-.8v-3.2h-2.93c-.2 0-.36-.08-.5-.22-.14-.15-.2-.32-.2-.52s.06-.37.2-.5c.14-.15.3-.22.5-.22h3.52c.24 0 .44.08.6.25.17.16.26.37.26.6v4.05c0 .25-.06.47-.2.66-.1.2-.28.35-.48.44-1.33.67-2.7 1-4.08 1-1.86 0-3.37-.6-4.52-1.78-1.15-1.2-1.73-2.73-1.73-4.6 0-1.9.6-3.44 1.8-4.66 1.15-1.17 2.62-1.75 4.4-1.75 1 0 1.86.12 2.56.36.7.25 1.32.56 1.87.9.24.14.36.33.36.57 0 .25-.07.44-.2.6a.6.6 0 0 1-.47.2c-.2 0-.34-.02-.46-.07-1.15-.67-2.32-1-3.5-1-1.37 0-2.5.4-3.38 1.24-.9.88-1.37 2.08-1.37 3.6 0 1.4.42 2.56 1.27 3.46.88.92 2.07 1.4 3.57 1.4m12.27-11.18c.22 0 .4.08.57.24.16.16.24.35.24.58v11c0 .2-.07.4-.23.56a.832.832 0 0 1-1.16-.01.81.81 0 0 1-.23-.57v-11c0-.23.07-.42.22-.58.15-.16.34-.24.57-.24m16.89.34c.14.14.22.32.22.53 0 .22-.1.4-.23.54-.15.14-.33.2-.55.2h-3.6V68.8c0 .2-.1.4-.25.56a.834.834 0 0 1-1.16-.01.77.77 0 0 1-.23-.57V58.57h-3.65c-.2 0-.4-.07-.53-.2a.763.763 0 0 1-.2-.55c0-.2.06-.4.2-.54a.67.67 0 0 1 .53-.23h8.87c.22 0 .4.07.55.22m15.19 11.16c.06.14.1.3.1.46 0 .15-.08.3-.22.46-.14.15-.36.23-.67.23-.3 0-.53-.18-.68-.5l-1.15-2.8h-6.06l-1.16 2.8c-.14.32-.37.5-.67.5-.3 0-.53-.1-.67-.24-.14-.16-.2-.3-.2-.47 0-.17 0-.33.07-.47l4.55-10.72c.2-.48.55-.72 1.03-.72h.18c.47 0 .82.24 1.03.73l4.53 10.73zm-3.26-3.6l-2.4-5.78-2.4 5.78h4.8zm17.47 3.29c.16.16.24.35.24.58 0 .22-.08.4-.24.57-.16.15-.36.23-.58.23h-6.33c-.3 0-.57-.1-.8-.33-.2-.22-.32-.48-.32-.8V57.8c0-.23.1-.42.24-.58.16-.16.35-.24.57-.24.24 0 .43.08.6.24.15.16.23.35.23.58v10.08h5.83c.22 0 .42.08.58.24"/></g></svg>