<svg viewBox="0 0 95 101" xmlns="http://www.w3.org/2000/svg"><g fill="none" fill-rule="evenodd"><path fill="#EFF4F7" d="M2.04 99h89.63l.56-11.97-5.77-4.22-9.2-5.87-2.4-7.57-3.42-19.64-5.77-1.9-1.22-28.7-4.43-8.27-8.17-7.36-5.3-1.42-7.9 4.36-6.9 8-2.7 8.23-.18 24-4.28 1.9-2.7 3.67-4.2 22.42-1.7 2.8-11.87 7.18-2.2 3.85"/><path fill="#6FB9E7" d="M35.6 32.54h23.36v-6.32L47.72 21.5l-11.98 5.15m5.16 72.33l12.44-.5.47-12.32-6.8-9.02-6.4 9.9"/><path d="M89.52 82.48l-9.46-5.67a5.987 5.987 0 0 1-2.85-4.18L74 53.32a9.256 9.256 0 0 0-7.53-7.6V25.17c0-11.6-7.82-21.85-19.03-24.9l-.42-.12-.43.12c-11.2 3.05-19.03 13.3-19.03 24.9v20.57a9.244 9.244 0 0 0-7.53 7.6l-3.2 19.3a6.093 6.093 0 0 1-2.86 4.18L4.52 82.5c-2.78 1.65-4.5 4.7-4.5 7.93v10.26H94V90.42c0-3.23-1.72-6.28-4.5-7.95zm-61.95 8.48H9.74v3.25h17.83v3.25H3.27V94.2H6.5v-3.24H3.26v-.53c0-2.1 1.12-4.08 2.93-5.17l9.45-5.67a9.273 9.273 0 0 0 4.37-6.44l3.22-19.3c.4-2.36 2.12-4.18 4.33-4.8v41.9zm17.83 6.5h-3.24V86.58l3.24-4.87v15.72zm6.48 0h-3.24V81.72l3.24 4.86v10.85zm11.35 0h-8.1V85.6l-6.5-9.7v-7.63H45.4v7.62l-6.5 9.7v11.85h-8.1v-72.3c0-10 6.65-18.83 16.22-21.65 9.56 2.82 16.2 11.66 16.2 21.66v72.3zm27.55-6.5h-3.24v3.25h3.24v3.25h-24.3V94.2H84.3v-3.24H66.47v-41.9c2.2.62 3.93 2.44 4.33 4.8l3.2 19.3a9.274 9.274 0 0 0 4.4 6.42l9.45 5.68c1.8 1.1 2.93 3.07 2.93 5.17v.53z" fill="#2C4064"/><path d="M34.05 25.06v9.18h25.93v-9.18L47.02 19.5l-12.97 5.56zM56.75 31H37.28v-3.8L47 23.03l9.72 4.17V31zM45.4 61.8h3.24v3.23H45.4z" fill="#2C4064"/></g></svg>